<?xml version="1.0" standalone="no"?>
<!DOCTYPE svg PUBLIC "-//W3C//DTD SVG 20010904//EN"
 "http://www.w3.org/TR/2001/REC-SVG-20010904/DTD/svg10.dtd">
<svg version="1.0" xmlns="http://www.w3.org/2000/svg"
 width="200.000000pt" height="200.000000pt" viewBox="0 0 200.000000 200.000000"
 preserveAspectRatio="xMidYMid meet">

<g transform="translate(0.000000,200.000000) scale(0.100000,-0.100000)"
fill="#000000" stroke="none">
<path d="M885 1905 c-141 -16 -315 -71 -300 -95 4 -6 -3 -9 -17 -7 -14 1 -23
-3 -23 -12 0 -8 -6 -16 -14 -19 -9 -3 -11 0 -6 8 6 9 3 9 -14 1 -24 -13 -28
-23 -6 -15 27 11 16 -1 -45 -46 -33 -25 -60 -48 -60 -53 0 -4 24 13 54 37 107
87 263 157 412 185 76 14 207 14 276 0 116 -24 258 -77 319 -120 14 -10 32
-19 39 -21 8 -2 25 -15 37 -30 13 -15 30 -25 36 -22 7 2 24 -8 37 -23 l25 -28
-30 25 c-16 13 -10 3 15 -23 24 -26 46 -47 49 -47 2 0 -6 11 -19 25 -13 14
-19 25 -14 25 10 0 71 -67 130 -145 70 -90 132 -245 141 -352 3 -34 8 -61 12
-59 3 2 5 -35 5 -82 -1 -74 0 -80 6 -37 6 38 7 27 5 -45 -2 -71 -1 -85 5 -55
17 81 2 238 -38 387 -9 35 -90 208 -102 218 -3 3 -17 23 -30 45 -35 60 -111
144 -176 198 -63 51 -152 107 -140 88 4 -6 -8 -4 -28 5 -19 10 -32 22 -29 27
3 6 1 7 -4 4 -6 -4 -41 4 -79 17 -135 45 -274 59 -429 41z m-265 -85 c-8 -5
-19 -10 -25 -10 -5 0 -3 5 5 10 8 5 20 10 25 10 6 0 3 -5 -5 -10z m941 -107
c13 -16 12 -17 -3 -4 -10 7 -18 15 -18 17 0 8 8 3 21 -13z"/>
<path d="M1350 1866 c0 -2 7 -7 16 -10 8 -3 12 -2 9 4 -6 10 -25 14 -25 6z"/>
<path d="M1410 1836 c0 -2 7 -7 16 -10 8 -3 12 -2 9 4 -6 10 -25 14 -25 6z"/>
<path d="M421 1720 c-28 -22 -51 -43 -51 -46 0 -3 21 12 48 32 64 52 67 54 60
54 -3 0 -29 -18 -57 -40z"/>
<path d="M359 1633 l-24 -28 28 24 c25 23 32 31 24 31 -2 0 -14 -12 -28 -27z"/>
<path d="M269 1573 c-13 -16 -12 -17 4 -4 9 7 17 15 17 17 0 8 -8 3 -21 -13z"/>
<path d="M304 1568 l-19 -23 23 19 c21 18 27 26 19 26 -2 0 -12 -10 -23 -22z"/>
<path d="M1290 1432 c-56 -20 -177 -140 -244 -241 -26 -39 -54 -71 -61 -71 -7
0 -34 30 -60 66 -65 91 -160 190 -211 220 -85 50 -173 41 -223 -22 -31 -39
-27 -61 17 -83 42 -22 92 -73 212 -216 102 -121 119 -136 184 -155 49 -15 51
-17 54 -54 2 -22 1 -50 -3 -64 l-6 -25 -117 5 c-140 7 -166 2 -170 -33 -2 -14
3 -30 10 -36 24 -18 93 -32 183 -39 50 -4 93 -12 97 -18 4 -6 8 -42 9 -81 0
-38 4 -95 9 -125 5 -30 12 -85 16 -122 4 -38 11 -68 16 -68 15 0 56 102 69
171 6 35 14 102 18 149 l6 85 106 8 c115 8 184 26 184 48 0 27 -57 44 -165 47
-58 2 -108 7 -112 11 -11 9 10 186 28 246 44 143 116 243 209 291 l53 28 39
-26 c38 -25 40 -25 52 -7 18 30 -5 96 -40 115 -36 18 -102 17 -159 -4z"/>
<path d="M81 1214 c0 -11 3 -14 6 -6 3 7 2 16 -1 19 -3 4 -6 -2 -5 -13z"/>
<path d="M101 1184 c0 -11 3 -14 6 -6 3 7 2 16 -1 19 -3 4 -6 -2 -5 -13z"/>
<path d="M72 1170 c0 -14 2 -19 5 -12 2 6 2 18 0 25 -3 6 -5 1 -5 -13z"/>
<path d="M92 1140 c0 -14 2 -19 5 -12 2 6 2 18 0 25 -3 6 -5 1 -5 -13z"/>
<path d="M63 1075 c0 -22 2 -30 4 -17 2 12 2 30 0 40 -3 9 -5 -1 -4 -23z"/>
<path d="M77 1058 c-3 -29 -9 -75 -13 -102 -4 -30 -3 -47 3 -43 5 3 9 -17 9
-51 0 -114 96 -336 201 -464 102 -125 273 -261 304 -242 7 4 9 3 6 -3 -4 -6 5
-15 19 -22 14 -6 23 -7 19 -1 -3 5 6 5 25 -1 35 -13 41 -24 8 -13 -13 3 -20 3
-15 -1 4 -5 24 -9 45 -10 20 -1 71 -10 112 -20 104 -24 353 -16 455 15 39 12
80 24 93 27 13 3 26 12 29 19 3 8 10 11 17 7 7 -4 7 -2 -1 7 -8 9 -16 10 -25
3 -13 -10 -54 -25 -158 -59 -83 -27 -329 -25 -425 3 -88 26 -166 59 -228 96
-26 16 -54 30 -62 31 -8 1 -18 6 -22 11 -4 4 -1 5 7 1 8 -5 2 3 -15 17 -16 13
-34 23 -40 21 -16 -6 -154 140 -201 211 -100 153 -137 283 -137 483 0 72 -1
132 -2 132 -2 0 -5 -24 -8 -52z m374 -795 c13 -16 12 -17 -3 -4 -17 13 -22 21
-14 21 2 0 10 -8 17 -17z"/>
<path d="M1912 890 c0 -19 2 -27 5 -17 2 9 2 25 0 35 -3 9 -5 1 -5 -18z"/>
<path d="M1901 824 c0 -11 3 -14 6 -6 3 7 2 16 -1 19 -3 4 -6 -2 -5 -13z"/>
<path d="M1922 790 c0 -14 2 -19 5 -12 2 6 2 18 0 25 -3 6 -5 1 -5 -13z"/>
<path d="M1881 744 c0 -11 3 -14 6 -6 3 7 2 16 -1 19 -3 4 -6 -2 -5 -13z"/>
<path d="M1911 744 c0 -11 3 -14 6 -6 3 7 2 16 -1 19 -3 4 -6 -2 -5 -13z"/>
<path d="M1739 423 c-13 -16 -12 -17 4 -4 16 13 21 21 13 21 -2 0 -10 -8 -17
-17z"/>
<path d="M1640 318 c-41 -40 -57 -58 -35 -41 39 30 124 113 115 113 -3 -1 -39
-33 -80 -72z"/>
<path d="M1615 328 l-50 -53 53 50 c48 46 57 55 49 55 -1 0 -25 -24 -52 -52z"/>
<path d="M1539 263 c-13 -16 -12 -17 4 -4 16 13 21 21 13 21 -2 0 -10 -8 -17
-17z"/>
<path d="M1471 220 c-52 -35 -62 -43 -37 -34 14 5 17 4 12 -5 -6 -8 2 -7 23 3
34 18 42 29 14 20 -10 -4 -5 5 12 20 39 33 31 32 -24 -4z"/>
<path d="M1407 169 c7 -7 15 -10 18 -7 3 3 -2 9 -12 12 -14 6 -15 5 -6 -5z"/>
<path d="M758 73 c7 -3 16 -2 19 1 4 3 -2 6 -13 5 -11 0 -14 -3 -6 -6z"/>
</g>
</svg>
